<?xml version="1.0" standalone="no"?>
<!DOCTYPE svg PUBLIC "-//W3C//DTD SVG 20010904//EN"
 "http://www.w3.org/TR/2001/REC-SVG-20010904/DTD/svg10.dtd">
<svg version="1.0" xmlns="http://www.w3.org/2000/svg"
 width="100.000000pt" height="98.000000pt" viewBox="0 0 100.000000 98.000000"
 preserveAspectRatio="xMidYMid meet">

<g transform="translate(0.000000,98.000000) scale(0.100000,-0.100000)"
fill="#000000" stroke="none">
<path d="M502 733 l3 -248 90 -32 c50 -18 93 -33 98 -33 4 0 7 110 7 244 l0
244 -52 18 c-29 9 -74 25 -101 35 l-47 19 2 -247z"/>
<path d="M358 668 l-58 -21 0 -168 c0 -93 3 -169 8 -169 4 0 35 10 70 22 l62
22 0 168 c0 128 -3 168 -12 167 -7 0 -39 -10 -70 -21z"/>
<path d="M123 192 c-32 -3 -33 -5 -33 -48 l0 -44 41 0 c22 0 38 4 35 9 -3 5
-15 7 -26 4 -14 -4 -20 0 -20 10 0 9 10 18 23 20 l22 4 -22 2 c-33 2 -29 29 5
33 15 2 23 5 17 8 -5 3 -25 4 -42 2z"/>
<path d="M386 193 c-3 -3 -6 -26 -6 -50 0 -32 4 -43 15 -43 11 0 15 12 15 44
0 43 -10 63 -24 49z"/>
<path d="M470 148 c0 -27 5 -48 10 -48 6 0 10 7 10 16 0 9 10 18 22 22 l22 5
-23 9 c-26 9 -19 28 10 28 10 0 19 3 19 8 0 4 -16 7 -35 7 l-35 0 0 -47z"/>
<path d="M600 150 c0 -27 5 -50 10 -50 6 0 10 23 10 50 0 28 -4 50 -10 50 -5
0 -10 -22 -10 -50z"/>
<path d="M850 148 l0 -48 35 0 c19 0 35 4 35 8 0 5 -9 8 -20 8 -27 -1 -26 18
2 25 l23 6 -25 4 c-31 5 -33 23 -2 27 35 5 26 17 -13 17 l-35 0 0 -47z"/>
<path d="M220 145 l0 -45 38 0 c52 0 80 29 64 65 -10 21 -18 25 -57 25 l-45 0
0 -45z m75 0 c0 -13 -8 -21 -22 -23 -19 -3 -23 1 -23 23 0 22 4 26 23 23 14
-2 22 -10 22 -23z"/>
<path d="M692 178 c-15 -15 -15 -51 0 -66 17 -17 73 -15 88 3 12 14 8 15 -28
9 -41 -6 -42 -6 -42 21 0 27 1 27 40 21 22 -3 40 -2 40 3 0 22 -78 29 -98 9z"/>
<path d="M83 35 c0 -8 4 -15 9 -15 4 0 8 7 8 15 0 8 -4 15 -8 15 -5 0 -9 -7
-9 -15z"/>
<path d="M151 34 c0 -11 3 -14 6 -6 3 7 2 16 -1 19 -3 4 -6 -2 -5 -13z"/>
<path d="M240 30 c6 -11 13 -20 16 -20 2 0 0 9 -6 20 -6 11 -13 20 -16 20 -2
0 0 -9 6 -20z"/>
<path d="M572 30 c0 -14 2 -19 5 -12 2 6 2 18 0 25 -3 6 -5 1 -5 -13z"/>
<path d="M821 34 c0 -11 3 -14 6 -6 3 7 2 16 -1 19 -3 4 -6 -2 -5 -13z"/>
</g>
</svg>
